# xmcd
#
# Track frame offsets: 
#        150
#        16216
#        34148
#        51342
#        72944
#
# Disc length: 1186 seconds
#
# Revision: 0
# Processed by: cddbd v1.5.2PL0 Copyright (c) Steve Scherf et al.
# Submitted via: ExactAudioCopy v0.99pb5
#
DISCID=3d04a005
DTITLE=US5 - Just Because Of You
DYEAR=2005
DGENRE=pop
TTITLE0=Just Because Of You (Single Edit)
TTITLE1=Just Because Of You (Full-Vocal House Remix)
TTITLE2=Just Because Of You (Video Cut)
TTITLE3=Just Because Of You (D&G Remix)
TTITLE4=Just Because Of You (Instrumental)
EXTD=
EXTT0=
EXTT1=
EXTT2=
EXTT3=
EXTT4=
PLAYORDER=
